# xmcd
#
# Track frame offsets:
#	150
#	20273
#	33734
#	48570
#	65571
#	83276
#	98666
#	117583
#	135067
#	151453
#
# Disc length: 2273 seconds
#
# Revision: 0
# Processed by: cddbd v1.5.2PL0 Copyright (c) Steve Scherf et al.
# Submitted via: audiograbber 1.82.01
#
DISCID=7508df0a
DTITLE=Zafeirhs Pasialhs - Xoris Esena
DYEAR=2007
DGENRE=Laika
TTITLE0=Xoris Esena
TTITLE1=Meine
TTITLE2=Ligo Ligo
TTITLE3=Tora To Plhrono
TTITLE4=Na M Xa8eis Pote
TTITLE5=Allou Gurnas
TTITLE6=De 8a Lugiso
TTITLE7=Tora S Exv Xexasei
TTITLE8=Ax Psuxh Mou
TTITLE9=Xaramata
EXTD=
EXTT0=
EXTT1=
EXTT2=
EXTT3=
EXTT4=
EXTT5=
EXTT6=
EXTT7=
EXTT8=
EXTT9=
PLAYORDER=
